HIERARCHY
ROOT root
{
	OFFSET 0.000000 0.000000 0.000000
	CHANNELS 6 Xposition Yposition Zposition Zrotation Yrotation Xrotation
	JOINT lhip
	{
		OFFSET 0.058581 -0.082280 -0.017664
		CHANNELS 3 Zrotation Yrotation Xrotation
		JOINT lknee
		{
			OFFSET 0.043451 -0.386469 0.008037
			CHANNELS 3 Zrotation Yrotation Xrotation
			JOINT lankle
			{
				OFFSET -0.014790 -0.426874 -0.037428
				CHANNELS 3 Zrotation Yrotation Xrotation
				JOINT ltoe
				{
					OFFSET 0.041054 -0.060286 0.122042
					CHANNELS 3 Zrotation Yrotation Xrotation
					End Site
					{
						OFFSET 0.000000 0.000000 0.000000
					}
				}
			}
		}
	}
	JOINT rhip
	{
		OFFSET -0.060310 -0.090513 -0.013543
		CHANNELS 3 Zrotation Yrotation Xrotation
		JOINT rknee
		{
			OFFSET -0.043257 -0.383688 -0.004843
			CHANNELS 3 Zrotation Yrotation Xrotation
			JOINT rankle
			{
				OFFSET 0.019056 -0.420046 -0.034562
				CHANNELS 3 Zrotation Yrotation Xrotation
				JOINT rtoe
				{
					OFFSET -0.034840 -0.062106 0.130323
					CHANNELS 3 Zrotation Yrotation Xrotation
					End Site
					{
						OFFSET 0.000000 0.000000 0.000000
					}
				}
			}
		}
	}
	JOINT lowerback
	{
		OFFSET 0.004439 0.124404 -0.038385
		CHANNELS 3 Zrotation Yrotation Xrotation
		JOINT upperback
		{
			OFFSET 0.004488 0.137956 0.026820
			CHANNELS 3 Zrotation Yrotation Xrotation
			JOINT chest
			{
				OFFSET -0.002265 0.056032 0.002855
				CHANNELS 3 Zrotation Yrotation Xrotation
				JOINT lowerneck
				{
					OFFSET -0.013390 0.211636 -0.033468
					CHANNELS 3 Zrotation Yrotation Xrotation
					JOINT upperneck
					{
						OFFSET 0.010113 0.088937 0.050410
						CHANNELS 3 Zrotation Yrotation Xrotation
						End Site
						{
							OFFSET 0.000000 0.000000 0.000000
						}
					}
				}
				JOINT lclavicle
				{
					OFFSET 0.071702 0.114000 -0.018898
					CHANNELS 3 Zrotation Yrotation Xrotation
					JOINT lshoulder
					{
						OFFSET 0.122921 0.045205 -0.019046
						CHANNELS 3 Zrotation Yrotation Xrotation
						JOINT lelbow
						{
							OFFSET 0.255332 -0.015649 -0.022946
							CHANNELS 3 Zrotation Yrotation Xrotation
							JOINT lwrist
							{
								OFFSET 0.265709 0.012698 -0.007375
								CHANNELS 3 Zrotation Yrotation Xrotation
								End Site
								{
									OFFSET 0.000000 0.000000 0.000000
								}
							}
						}
					}
				}
				JOINT rclavicle
				{
					OFFSET -0.082954 0.112472 -0.023707
					CHANNELS 3 Zrotation Yrotation Xrotation
					JOINT rshoulder
					{
						OFFSET -0.113228 0.046853 -0.008472
						CHANNELS 3 Zrotation Yrotation Xrotation
						JOINT relbow
						{
							OFFSET -0.260127 -0.014369 -0.031269
							CHANNELS 3 Zrotation Yrotation Xrotation
							JOINT rwrist
							{
								OFFSET -0.269108 0.006794 -0.006027
								CHANNELS 3 Zrotation Yrotation Xrotation
								End Site
								{
									OFFSET 0.000000 0.000000 0.000000
								}
							}
						}
					}
				}
			}
		}
	}
}
MOTION
Frames: 7
Frame Time: 0.033333
0.008738 0.283381 1.029010 88.413603 -0.352060 87.857554 3.291998 3.733909 -1.993403 -3.020780 -3.694487 6.709757 -5.893544 14.980356 -3.067680 0.000000 -0.000000 0.000000 -3.158263 -10.165588 -3.933753 -1.701795 -3.449303 10.124031 9.040226 -10.979015 -2.564560 0.000000 -0.000000 0.000000 2.455789 -0.324382 18.219170 -4.186873 -1.535298 -5.908887 2.018264 2.606362 3.897512 -3.583120 -25.634011 8.689221 12.704270 -17.817413 9.512294 22.946069 -16.505671 -26.193392 18.344841 -30.062995 -27.907151 118.264759 -41.393176 -108.833738 9.113866 -17.646640 -44.864535 -37.501424 28.434881 -33.956649 -16.072408 43.276997 -36.242207 -17.101339 8.089744 -6.962146 7.132628 -7.841354 34.930219 
0.008493 0.284721 1.029021 88.663591 -0.375525 87.925692 3.183018 3.734650 -2.167293 -2.956921 -3.755153 6.812878 -5.979165 14.783850 -3.083055 0.000000 -0.000000 0.000000 -3.190527 -10.180288 -3.989674 -1.875623 -3.764612 10.175782 9.068307 -10.861053 -2.554842 0.000000 -0.000000 0.000000 2.721068 -0.186343 18.670980 -4.017461 -1.658071 -6.255828 2.092397 2.397140 4.013307 -3.493339 -26.085673 8.995711 13.030624 -18.583880 8.027103 22.436578 -16.636139 -25.920665 18.371282 -29.899791 -28.352257 119.845486 -41.036074 -109.640653 11.065000 -15.909769 -44.462771 -37.111073 27.886782 -33.944244 -16.974494 43.128524 -37.154094 -19.839016 11.059365 -8.285333 -2.578404 -3.687620 36.858844 
0.006841 0.286088 1.028162 88.893897 -0.454628 87.927637 2.961445 3.733793 -2.780242 -2.872997 -3.758019 7.695198 -6.001941 14.586549 -3.456014 0.000000 -0.000000 0.000000 -3.319489 -10.158621 -4.442720 -2.055822 -4.159127 10.935985 9.078910 -10.690620 -2.756765 0.000000 -0.000000 0.000000 2.887582 0.012698 19.163559 -3.757066 -1.892561 -6.322457 2.067467 2.228734 4.282390 -3.168075 -25.896758 9.313255 13.101275 -19.557809 7.233263 22.161749 -16.794197 -25.638936 18.195899 -29.590750 -28.572103 121.093012 -41.197635 -110.061187 13.075640 -14.916275 -44.471407 -36.532971 27.420740 -34.037568 -16.838307 43.745787 -37.634081 -23.520586 14.342326 -10.818403 -11.514738 1.159941 37.116678 
0.003791 0.287456 1.026457 89.001209 -0.478998 87.835972 2.824828 3.589371 -3.743654 -2.879909 -3.470547 9.345169 -5.786393 14.195792 -3.882848 0.000000 -0.000000 0.000000 -3.406901 -10.036257 -5.265579 -2.267430 -4.572202 12.422338 9.072044 -10.453529 -3.188438 0.000000 -0.000000 0.000000 2.962652 0.154011 20.009957 -3.376977 -2.132233 -6.375657 2.071713 2.158849 4.466719 -2.962180 -25.443572 9.925800 12.742397 -20.366117 7.259438 21.768945 -17.004868 -25.470575 18.174197 -29.509130 -28.663594 121.825824 -41.894839 -110.616241 15.155309 -14.228484 -44.517007 -35.514173 27.574092 -33.701621 -16.524770 44.723494 -37.843869 -27.845206 17.986981 -14.026728 -20.103765 6.551267 37.152473 
-0.000567 0.288976 1.023890 88.998644 -0.565071 87.483433 2.779625 3.201175 -4.466656 -3.150062 -2.960167 10.954509 -5.531413 14.135963 -4.429342 0.000000 -0.000000 0.000000 -3.699244 -9.808583 -6.024358 -2.275817 -4.833807 14.103379 8.835753 -10.341456 -3.756357 0.000000 -0.000000 0.000000 3.004215 0.404293 21.166153 -2.987449 -2.318143 -5.957128 2.096443 2.183424 4.507675 -2.872994 -24.588643 10.838981 12.344315 -21.067955 7.337516 21.417591 -17.538637 -25.122374 18.353781 -29.096949 -29.017994 122.225519 -42.922528 -110.804191 16.908485 -13.767118 -45.472030 -34.468487 28.141526 -33.256281 -16.306619 45.812072 -38.293576 -32.030185 21.177630 -15.441907 -27.787034 12.066807 37.574417 
-0.006260 0.290316 1.020506 88.937257 -0.596019 87.160258 2.826495 3.338000 -5.521603 -3.478150 -2.728020 12.915680 -5.257534 13.882508 -5.012775 0.000000 -0.000000 0.000000 -3.862716 -9.665876 -7.191455 -2.461522 -5.067132 16.305010 8.737702 -10.026408 -4.385951 0.000000 -0.000000 0.000000 2.954279 0.713368 22.579784 -2.529111 -2.342339 -5.561992 2.295775 2.308885 4.621985 -2.691695 -23.637740 11.829564 11.777263 -21.634025 7.614340 21.124648 -18.197753 -24.702750 18.595304 -28.650389 -29.346020 122.478695 -44.118619 -110.845577 19.165470 -13.739796 -46.870261 -33.216410 29.257252 -32.291854 -16.996112 46.316565 -39.241406 -35.231459 24.044603 -15.731621 -34.825558 17.498454 37.384542 
-0.014094 0.291576 1.016075 89.044149 -0.587079 87.018282 2.813310 3.458354 -7.301064 -3.582208 -2.330165 15.439465 -4.870983 13.439154 -5.524733 0.000000 -0.000000 0.000000 -3.884000 -9.622007 -9.024235 -2.764620 -5.344484 19.093357 8.425960 -9.766986 -5.027549 0.000000 -0.000000 0.000000 3.061948 1.033419 24.151870 -2.135878 -2.296183 -5.166479 2.407297 2.433525 4.767227 -2.790578 -22.843185 13.196847 11.795259 -22.026787 7.777449 21.235575 -18.721689 -24.408196 18.619492 -28.295481 -29.566880 122.677553 -44.978774 -111.221495 19.264776 -12.961953 -47.228901 -32.241154 30.204010 -31.468763 -16.689550 46.705222 -39.616089 -38.293376 26.732216 -16.586523 -38.628988 20.595009 37.717277 
